<?xml version="1.0" standalone="no"?>
<!DOCTYPE svg PUBLIC "-//W3C//DTD SVG 20010904//EN"
 "http://www.w3.org/TR/2001/REC-SVG-20010904/DTD/svg10.dtd">
<svg version="1.0" xmlns="http://www.w3.org/2000/svg"
 width="260.000000pt" height="260.000000pt" viewBox="0 0 260.000000 260.000000"
 preserveAspectRatio="xMidYMid meet">
<metadata>
Created by potrace 1.14, written by Peter Selinger 2001-2017
</metadata>
<g transform="translate(0.000000,260.000000) scale(0.100000,-0.100000)"
fill="#000000" stroke="none">
<path d="M1160 2460 c0 -5 -21 -10 -47 -10 -27 -1 -66 -7 -88 -15 -22 -8 -50
-15 -62 -15 -13 0 -23 -4 -23 -10 0 -5 -13 -10 -30 -10 -16 0 -30 -4 -30 -9 0
-5 -16 -12 -35 -15 -19 -4 -35 -11 -35 -16 0 -6 -11 -10 -25 -10 -14 0 -25 -4
-25 -10 0 -5 -7 -10 -16 -10 -9 0 -27 -11 -40 -25 -13 -14 -30 -25 -39 -25 -8
0 -15 -4 -15 -10 0 -5 -5 -10 -11 -10 -6 0 -17 -6 -24 -12 -30 -27 -44 -38
-50 -38 -8 0 -175 -167 -175 -175 0 -4 -6 -13 -12 -20 -30 -33 -38 -45 -38
-55 0 -5 -4 -10 -10 -10 -5 0 -10 -7 -10 -15 0 -9 -11 -26 -25 -39 -14 -13
-25 -31 -25 -40 0 -9 -4 -16 -10 -16 -5 0 -10 -11 -10 -25 0 -14 -4 -25 -10
-25 -5 0 -12 -16 -16 -35 -3 -19 -10 -35 -15 -35 -5 0 -9 -13 -9 -30 0 -16 -4
-30 -10 -30 -5 0 -10 -10 -10 -22 0 -13 -7 -41 -15 -63 -8 -22 -14 -61 -15
-87 0 -27 -4 -48 -10 -48 -6 0 -10 -53 -10 -140 0 -87 4 -140 10 -140 6 0 10
-21 10 -47 1 -27 7 -66 15 -88 8 -22 15 -50 15 -62 0 -13 5 -23 10 -23 6 0 10
-13 10 -30 0 -16 4 -30 9 -30 5 0 12 -16 15 -35 4 -19 11 -35 16 -35 6 0 10
-11 10 -25 0 -14 5 -25 10 -25 6 0 10 -7 10 -16 0 -9 11 -27 25 -40 14 -13 25
-30 25 -39 0 -8 5 -15 10 -15 6 0 10 -5 10 -11 0 -6 6 -17 13 -24 26 -30 37
-44 37 -50 0 -8 167 -175 175 -175 4 0 13 -6 20 -13 33 -29 45 -37 55 -37 5 0
10 -4 10 -10 0 -5 7 -10 15 -10 9 0 26 -11 39 -25 13 -14 31 -25 40 -25 9 0
16 -4 16 -10 0 -5 11 -10 25 -10 14 0 25 -4 25 -10 0 -5 16 -12 35 -16 19 -3
35 -10 35 -15 0 -5 14 -9 30 -9 17 0 30 -4 30 -10 0 -5 10 -10 23 -10 12 0 40
-7 62 -15 22 -8 61 -14 88 -15 26 0 47 -4 47 -10 0 -6 53 -10 140 -10 87 0
140 4 140 10 0 6 21 10 48 10 26 1 65 7 87 15 22 8 50 15 63 15 12 0 22 5 22
10 0 6 14 10 30 10 17 0 30 4 30 9 0 5 16 12 35 15 19 4 35 11 35 16 0 6 11
10 25 10 14 0 25 5 25 10 0 6 7 10 16 10 9 0 27 11 40 25 13 14 30 25 39 25 8
0 15 5 15 10 0 6 5 10 11 10 6 0 17 6 24 12 30 27 44 38 50 38 8 0 175 167
175 175 0 4 6 13 13 20 29 33 37 45 37 55 0 5 5 10 10 10 6 0 10 7 10 15 0 9
11 26 25 39 14 13 25 31 25 40 0 9 5 16 10 16 6 0 10 11 10 25 0 14 4 25 10
25 5 0 12 16 16 35 3 19 10 35 15 35 5 0 9 14 9 30 0 17 5 30 10 30 6 0 10 10
10 23 0 12 7 40 15 62 8 22 14 61 15 88 0 26 5 47 10 47 6 0 10 53 10 140 0
87 -4 140 -10 140 -5 0 -10 21 -10 48 -1 26 -7 65 -15 87 -8 22 -15 50 -15 63
0 12 -4 22 -10 22 -5 0 -10 14 -10 30 0 17 -4 30 -9 30 -5 0 -12 16 -15 35 -4
19 -11 35 -16 35 -6 0 -10 11 -10 25 0 14 -4 25 -10 25 -5 0 -10 7 -10 16 0 9
-11 27 -25 40 -14 13 -25 30 -25 39 0 8 -4 15 -10 15 -5 0 -10 5 -10 11 0 6
-6 17 -12 24 -27 30 -38 44 -38 50 0 8 -167 175 -175 175 -4 0 -13 6 -20 13
-33 29 -45 37 -55 37 -5 0 -10 5 -10 10 0 6 -7 10 -15 10 -9 0 -26 11 -39 25
-13 14 -31 25 -40 25 -9 0 -16 5 -16 10 0 6 -11 10 -25 10 -14 0 -25 4 -25 10
0 5 -16 12 -35 16 -19 3 -35 10 -35 15 0 5 -13 9 -30 9 -16 0 -30 5 -30 10 0
6 -10 10 -22 10 -13 0 -41 7 -63 15 -22 8 -61 14 -87 15 -27 0 -48 5 -48 10 0
6 -53 10 -140 10 -87 0 -140 -4 -140 -10z m280 -140 c0 -5 18 -10 40 -10 22 0
57 -7 77 -15 19 -8 44 -15 54 -15 11 0 19 -4 19 -10 0 -5 16 -10 35 -10 19 0
35 -4 35 -10 0 -5 9 -10 20 -10 11 0 23 -7 26 -15 4 -8 15 -15 25 -15 10 0 19
-4 19 -10 0 -5 9 -10 20 -10 12 0 32 -11 46 -25 14 -14 30 -25 35 -25 6 0 31
-20 56 -45 24 -25 47 -45 49 -45 6 0 54 -48 54 -54 0 -2 20 -25 45 -49 25 -25
45 -50 45 -56 0 -5 11 -21 25 -35 14 -14 25 -34 25 -46 0 -11 5 -20 10 -20 6
0 10 -9 10 -19 0 -10 7 -21 15 -25 8 -3 15 -14 15 -25 0 -11 5 -23 10 -26 6
-3 10 -19 10 -36 0 -16 5 -29 10 -29 6 0 10 -8 10 -19 0 -10 7 -35 15 -54 8
-20 15 -55 15 -77 0 -22 5 -40 10 -40 6 0 10 -53 10 -140 0 -87 -4 -140 -10
-140 -5 0 -10 -18 -10 -40 0 -22 -7 -57 -15 -77 -8 -19 -15 -44 -15 -54 0 -11
-4 -19 -10 -19 -5 0 -10 -13 -10 -29 0 -17 -4 -33 -10 -36 -5 -3 -10 -15 -10
-26 0 -11 -7 -22 -15 -25 -8 -4 -15 -15 -15 -25 0 -10 -4 -19 -10 -19 -5 0
-10 -8 -10 -17 0 -10 -11 -31 -25 -47 -14 -16 -25 -33 -25 -38 0 -5 -20 -30
-45 -55 -25 -24 -45 -47 -45 -49 0 -6 -48 -54 -54 -54 -2 0 -25 -20 -49 -45
-25 -25 -50 -45 -55 -45 -5 0 -22 -11 -38 -25 -16 -14 -37 -25 -46 -25 -10 0
-18 -4 -18 -10 0 -5 -9 -10 -19 -10 -10 0 -21 -7 -25 -15 -3 -8 -14 -15 -25
-15 -11 0 -23 -4 -26 -10 -3 -5 -19 -10 -36 -10 -16 0 -29 -4 -29 -10 0 -5 -8
-10 -19 -10 -10 0 -35 -7 -54 -15 -20 -8 -55 -15 -77 -15 -22 0 -40 -4 -40
-10 0 -6 -53 -10 -140 -10 -87 0 -140 4 -140 10 0 6 -18 10 -40 10 -22 0 -57
7 -77 15 -19 8 -44 15 -54 15 -11 0 -19 5 -19 10 0 6 -13 10 -29 10 -17 0 -33
4 -36 10 -3 5 -15 10 -26 10 -11 0 -22 7 -25 15 -4 8 -15 15 -25 15 -10 0 -19
5 -19 10 0 6 -8 10 -17 10 -10 0 -31 11 -47 25 -16 14 -33 25 -38 25 -5 0 -30
20 -55 45 -24 25 -47 45 -49 45 -6 0 -54 48 -54 54 0 2 -20 25 -45 49 -25 25
-45 50 -45 55 0 5 -11 22 -25 38 -14 16 -25 37 -25 47 0 9 -4 17 -10 17 -5 0
-10 9 -10 19 0 10 -7 21 -15 25 -8 3 -15 15 -15 26 0 11 -4 20 -10 20 -5 0
-10 16 -10 35 0 19 -4 35 -10 35 -5 0 -10 8 -10 19 0 10 -7 35 -15 54 -8 20
-15 55 -15 77 0 22 -4 40 -10 40 -6 0 -10 53 -10 140 0 87 4 140 10 140 6 0
10 18 10 40 0 22 7 57 15 77 8 19 15 44 15 54 0 11 5 19 10 19 6 0 10 16 10
35 0 19 5 35 10 35 6 0 10 9 10 20 0 11 7 23 15 26 8 4 15 15 15 25 0 10 5 19
10 19 6 0 10 8 10 18 0 9 11 30 25 46 14 16 25 33 25 38 0 5 20 30 45 55 25
24 45 47 45 49 0 6 48 54 54 54 2 0 25 20 49 45 25 25 50 45 56 45 5 0 21 11
35 25 14 14 34 25 46 25 11 0 20 5 20 10 0 6 9 10 19 10 10 0 21 7 25 15 3 8
15 15 26 15 11 0 20 5 20 10 0 6 16 10 35 10 19 0 35 5 35 10 0 6 8 10 19 10
10 0 35 7 54 15 20 8 55 15 77 15 22 0 40 5 40 10 0 6 53 10 140 10 87 0 140
-4 140 -10z"/>
<path d="M1020 1782 c0 -4 -15 -16 -32 -27 -18 -10 -40 -27 -49 -37 -9 -10
-20 -18 -23 -18 -11 0 -36 -27 -36 -39 0 -6 -5 -11 -10 -11 -11 0 -25 -10 -65
-47 -13 -13 -29 -23 -35 -23 -5 0 -10 -7 -10 -15 0 -8 -4 -15 -10 -15 -5 0
-10 -13 -10 -30 0 -16 5 -30 10 -30 6 0 10 -7 10 -15 0 -9 9 -15 24 -15 13 0
26 -6 28 -12 3 -9 9 -8 22 5 10 9 21 17 25 17 5 0 30 20 55 45 26 25 49 45 52
45 2 0 4 -156 4 -347 l1 -348 24 -27 c17 -19 34 -28 55 -28 28 0 60 18 60 35
0 6 10 19 38 50 6 7 12 18 12 24 0 6 5 11 10 11 6 0 10 7 10 15 0 9 11 26 25
39 14 13 25 31 25 40 0 9 4 16 8 16 5 0 15 11 22 25 7 14 19 25 27 25 7 0 13
9 13 20 0 12 10 32 23 45 37 40 47 54 47 65 0 5 5 10 10 10 6 0 10 6 10 13 0
7 11 24 25 39 14 15 25 32 25 38 0 5 5 10 10 10 6 0 10 9 10 20 0 11 7 20 15
20 8 0 15 7 15 15 0 8 5 15 10 15 6 0 10 7 10 15 0 19 31 56 42 49 4 -3 8
-140 8 -305 0 -193 4 -299 10 -299 6 0 10 -5 10 -11 0 -37 65 -51 100 -22 19
17 20 29 20 473 0 444 -1 456 -20 473 -22 18 -70 23 -70 7 0 -5 -5 -10 -11
-10 -11 0 -39 -25 -39 -35 0 -4 -6 -13 -12 -20 -30 -33 -38 -45 -38 -55 0 -5
-4 -10 -10 -10 -5 0 -10 -6 -10 -13 0 -7 -11 -24 -25 -39 -14 -15 -25 -32 -25
-38 0 -5 -4 -10 -10 -10 -5 0 -10 -9 -10 -20 0 -11 -7 -20 -15 -20 -8 0 -15
-7 -15 -15 0 -8 -4 -15 -10 -15 -5 0 -10 -7 -10 -15 0 -9 -11 -27 -25 -41 -14
-14 -25 -30 -25 -37 0 -7 -9 -19 -20 -27 -11 -8 -20 -20 -20 -27 0 -7 -11 -23
-25 -37 -14 -14 -25 -30 -25 -36 0 -5 -3 -10 -8 -10 -4 0 -16 -16 -26 -35 -11
-19 -23 -35 -28 -35 -4 0 -8 -7 -8 -15 0 -18 -36 -56 -44 -48 -3 4 -6 149 -6
324 0 309 -1 318 -20 324 -11 3 -20 11 -20 16 0 5 -11 9 -25 9 -14 0 -25 -4
-25 -8z"/>
</g>
</svg>
