<svg width="40" height="40" viewBox="0 0 40 40" fill="none" xmlns="http://www.w3.org/2000/svg">
<path fill-rule="evenodd" clip-rule="evenodd" d="M29.5 7.5C30.0523 7.5 30.5 7.05228 30.5 6.5C30.5 5.94772 30.0523 5.5 29.5 5.5C28.9477 5.5 28.5 5.94772 28.5 6.5C28.5 7.05228 28.9477 7.5 29.5 7.5ZM29.5 9C30.8807 9 32 7.88071 32 6.5C32 5.11929 30.8807 4 29.5 4C28.1193 4 27 5.11929 27 6.5C27 6.7719 27.0434 7.03366 27.1237 7.27874C26.0349 8.27494 25.3865 9.05439 24.5213 10.3624C23.1956 9.65352 21.6455 9.25002 20 9.25002C18.3545 9.25002 16.8044 9.65352 15.4787 10.3624C14.6135 9.05439 13.9651 8.27494 12.8763 7.27873C12.9566 7.03366 13 6.7719 13 6.5C13 5.11929 11.8807 4 10.5 4C9.11929 4 8 5.11929 8 6.5C8 7.88071 9.11929 9 10.5 9C11.0599 9 11.5768 8.81593 11.9936 8.505C12.9032 9.35111 13.4595 10.0294 14.2204 11.179C13.4694 11.764 12.8307 12.4632 12.3394 13.25H12.2H12.1696C11.6354 13.25 11.1896 13.25 10.8253 13.2798C10.4454 13.3108 10.0888 13.3779 9.75153 13.5498C9.23408 13.8134 8.81338 14.2341 8.54973 14.7515C8.37789 15.0888 8.31078 15.4455 8.27974 15.8253C8.24998 16.1896 8.24999 16.6354 8.25 17.1696L8.25 17.2V17.325C6.53832 17.6725 5.25 19.1858 5.25 21V24C5.25 25.8251 6.55381 27.3457 8.28083 27.6811C8.29064 27.9155 8.30357 28.1365 8.32061 28.3451C8.39252 29.2252 8.54138 29.9523 8.87671 30.6105C9.42798 31.6924 10.3076 32.572 11.3896 33.1233C12.0477 33.4586 12.7748 33.6075 13.6549 33.6794C14.5192 33.75 15.5945 33.75 16.9661 33.75H16.9661H16.9662H16.9662H16.9663H16.9663H16.9664H16.9664H17H23H23.0336H23.0336H23.0337H23.0337H23.0338H23.0338H23.0339H23.0339C24.4055 33.75 25.4808 33.75 26.3451 33.6794C27.2252 33.6075 27.9523 33.4586 28.6104 33.1233C29.6924 32.572 30.572 31.6924 31.1233 30.6105C31.4586 29.9523 31.6075 29.2252 31.6794 28.3451C31.6964 28.1365 31.7094 27.9155 31.7192 27.6811C33.4462 27.3457 34.75 25.8251 34.75 24V21C34.75 19.1858 33.4617 17.6725 31.75 17.325V17.2V17.1696C31.75 16.6354 31.75 16.1896 31.7203 15.8253C31.6892 15.4455 31.6221 15.0888 31.4503 14.7515C31.1866 14.2341 30.7659 13.8134 30.2485 13.5498C29.9112 13.3779 29.5546 13.3108 29.1747 13.2798C28.8104 13.25 28.3646 13.25 27.8304 13.25H27.8H27.6606C27.1693 12.4632 26.5306 11.764 25.7796 11.179C26.5405 10.0294 27.0968 9.35111 28.0064 8.505C28.4232 8.81593 28.9401 9 29.5 9ZM14.2022 13.25C15.5134 11.7475 17.6057 10.75 20 10.75C22.3943 10.75 24.4866 11.7475 25.7978 13.25H14.2022ZM33.25 24C33.25 24.9803 32.6231 25.8141 31.7484 26.1225C31.75 25.7822 31.75 25.4203 31.75 25.0351V25.0337V25.0336V25.0336V25V18.878C32.6239 19.1869 33.25 20.0204 33.25 21V24ZM8.25157 26.1225C8.25 25.7817 8.25 25.4194 8.25 25.0336V25V18.878C7.37611 19.1869 6.75 20.0204 6.75 21V24C6.75 24.9803 7.37685 25.8141 8.25157 26.1225ZM10.4325 14.8863C10.5231 14.8401 10.6604 14.7982 10.9475 14.7748C11.2434 14.7506 11.6276 14.75 12.2 14.75H27.8C28.3724 14.75 28.7566 14.7506 29.0525 14.7748C29.3396 14.7982 29.4769 14.8401 29.5675 14.8863C29.8027 15.0061 29.9939 15.1973 30.1138 15.4325C30.1599 15.5231 30.2018 15.6604 30.2252 15.9475C30.2494 16.2434 30.25 16.6276 30.25 17.2V25C30.25 26.4125 30.2494 27.4268 30.1844 28.2229C30.12 29.0103 29.9964 29.5181 29.7868 29.9295C29.3793 30.7292 28.7291 31.3793 27.9295 31.7868C27.518 31.9964 27.0103 32.1201 26.2229 32.1844C25.4268 32.2494 24.4125 32.25 23 32.25H17C15.5875 32.25 14.5732 32.2494 13.7771 32.1844C12.9897 32.1201 12.482 31.9964 12.0705 31.7868C11.2709 31.3793 10.6207 30.7292 10.2132 29.9295C10.0036 29.5181 9.87996 29.0103 9.81563 28.2229C9.75058 27.4268 9.75 26.4125 9.75 25V17.2C9.75 16.6276 9.75058 16.2434 9.77476 15.9475C9.79822 15.6604 9.8401 15.5231 9.88624 15.4325C10.0061 15.1973 10.1973 15.0061 10.4325 14.8863ZM11.5 6.5C11.5 7.05228 11.0523 7.5 10.5 7.5C9.94772 7.5 9.5 7.05228 9.5 6.5C9.5 5.94772 9.94772 5.5 10.5 5.5C11.0523 5.5 11.5 5.94772 11.5 6.5Z" fill="#F5F5F5"/>
<path fill-rule="evenodd" clip-rule="evenodd" d="M24.6893 27.8729C24.8659 28.2754 24.7112 28.7497 24.3167 28.9434C21.4472 30.3522 18.5528 30.3522 15.6833 28.9434C15.2888 28.7497 15.1341 28.2754 15.3107 27.8729C15.5154 27.4063 16.0782 27.2235 16.5413 27.4361C18.8538 28.4978 21.1462 28.4978 23.4587 27.4361C23.9218 27.2235 24.4846 27.4063 24.6893 27.8729Z" fill="#F5F5F5"/>
<circle cx="15" cy="21.0078" r="2.5" fill="#F5F5F5"/>
<path d="M21.3239 21.4125C22.0767 20.9047 23.1854 20.5 24.2912 20.5C25.3493 20.5 26.4063 20.9399 27.2912 21.5155" stroke="#F5F5F5" stroke-width="1.5"/>
</svg>
