<svg width="50" height="48" viewBox="0 0 50 48" fill="none" xmlns="http://www.w3.org/2000/svg">
<path d="M8.88161 18.6139C6.46894 16.3034 3.22398 12.4292 6.00016 10C9.16604 7.22985 24.2338 3.83328 31.8677 5.75985C32.3302 5.10606 32.8727 4.51304 33.4998 4C38.9998 -0.5 46.7292 1.87621 48.4998 12.5C49.4998 18.5 46.4998 20.5 38.9998 18.5C37.1578 18.0088 34.0189 17.6684 30.3164 17.5084C30.9352 19.7636 32.031 21.7443 33.4998 23C37.9998 26.8473 55.4998 28 41.9998 34.5C41.1509 34.9087 40.3573 35.2463 39.6134 35.5206C39.0893 36.872 37.5451 38.2737 35.2895 39.7197C41.82 40.9011 41.3337 42.0813 40.4998 45C39.9305 46.9927 32.0676 46.5542 24.6627 45.0688C11.0682 50.5282 4.45295 43.1718 2.99983 33C2.61824 30.3289 4.76057 27.8519 8.118 25.5361C3.53409 25.164 0.984031 24.5819 1.50042 22C1.80682 20.468 4.74183 19.3585 8.88161 18.6139Z" fill="white"/>
<path d="M11 20.5C10.5 20 2.00016 13.5 6.00016 10C10.0002 6.5 32.9998 2 35.9998 8.5C38.9998 15 1.49983 22.5 2.99983 33C4.49983 43.5 11.5004 51 26.0004 44.5C40.5004 38 48.1559 32.1873 25.5003 27.5C11 24.5 0.50042 27 1.50042 22C2.50042 17 31.4998 16.5 38.9998 18.5C46.4998 20.5 49.4998 18.5 48.4998 12.5C46.7292 1.87621 38.9998 -0.5 33.4998 4C27.9998 8.5 28.9998 19.1527 33.4998 23C37.9998 26.8473 55.4998 28 41.9998 34.5C28.4998 41 29 29.5 20.5 32C12 34.5 8 36.5 12 40.5C16 44.5 39.4998 48.5 40.4998 45C41.4998 41.5 41.9999 40.5 30.4998 39C18.9998 37.5 14.4998 25.5 17.9998 23.5C21.4998 21.5 30.5 9.5 21.5 9C12.5 8.5 24.5 19 27 24.5C29 28.9 12.4999 21.6667 11 20.5Z" stroke="black" stroke-width="2"/>
</svg>
