<svg width="54" height="50" viewBox="0 0 54 50" fill="none" xmlns="http://www.w3.org/2000/svg">
<path d="M32.8439 4.37182C35.2975 6.11287 37.8525 8.23583 39.3408 10.9003C39.9025 9.95629 40.438 9.06457 40.9209 7.69632C41.7542 6.02965 43.3246 4.29632 42.9396 10.6963C42.8833 11.6328 42.8051 12.4011 42.7108 13.0256C43.5375 13.3253 44.3111 13.856 46.1784 14.8386C48.4362 16.0267 51.3001 17.8929 52.4209 20.2982C53.4772 22.5651 50.9813 22.4951 49.32 22.3164C45.6311 21.9194 46.4817 21.617 42.9396 20.5778C41.5571 20.1722 40.166 19.7653 38.7659 19.3851C38.8824 19.5474 39.0063 19.7078 39.1372 19.8661C40.0674 20.991 41.1964 21.9492 42.317 22.9133C43.0977 23.0045 43.8737 23.1072 44.6426 23.2212C45.7749 23.3892 49.4368 23.6071 49.8683 25.1173C50.0354 25.7019 47.0977 26.2028 45.7652 26.4261C45.9909 26.747 46.1993 27.0823 46.3862 27.4354C49.7643 33.8163 42.7427 40.9755 36.2138 41.6275C36.3685 42.427 36.482 43.2295 36.5446 44.0328C36.6597 45.5084 36.8193 47.757 34.4209 47.6963C32.1883 47.6398 30.3158 47.4303 28.645 46.1119C28.6193 46.0917 28.5937 46.0714 28.5682 46.0511C28.3984 46.5045 28.2261 46.9717 28.0499 47.4548C27.76 48.2495 27.2573 49.2236 26.9418 47.9326C26.5672 46.4003 26.2462 44.851 25.9599 43.6255C24.8638 42.4516 23.8706 41.1836 22.9417 39.8671C19.0537 38.7386 14.4508 36.7513 12.134 33.2864C10.3172 30.5695 9.82535 27.6127 10.5929 24.5587C8.80594 24.0798 7.01494 23.5981 5.28148 22.967C3.97467 22.4913 2.28629 21.852 1.30115 20.8167C0.0773591 19.5307 2.92764 18.0686 3.7107 17.6803C7.75502 15.6748 12.4894 14.5693 16.9752 13.8828C17.4502 13.389 17.9388 12.9154 18.4374 12.4647C19.5729 11.4382 21.0376 10.2646 22.6592 9.22462C22.4785 8.67385 22.3169 8.11871 22.1839 7.55913C21.8827 6.29134 21.5243 4.69913 21.8027 3.3958C22.908 -1.77898 30.6378 2.80639 32.8439 4.37182Z" fill="white"/>
<path d="M40.4996 14.1117C39.7702 9.87056 36.2116 6.76145 32.8439 4.37182C30.6378 2.80639 22.908 -1.77898 21.8027 3.3958C21.5243 4.69913 21.8827 6.29134 22.1839 7.55913C22.6249 9.41517 23.3817 11.2223 24.1004 12.9832C26.5747 19.0459 29.6123 24.8369 32.3152 30.7955C34.1859 34.9193 36.1884 39.4634 36.5446 44.0328C36.6597 45.5084 36.8193 47.757 34.4209 47.6963C32.1883 47.6398 30.3158 47.4303 28.645 46.1119C25.5257 43.6507 23.1973 40.4184 21.0961 37.0837C18.2385 32.549 15.0353 24.8928 19.388 20.2982C21.6638 17.896 25.3951 17.2905 28.5789 17.4973C33.4746 17.8152 38.2564 19.2038 42.9396 20.5778C46.4817 21.617 45.6311 21.9194 49.32 22.3164C50.9813 22.4951 53.4772 22.5651 52.4209 20.2982C51.3001 17.8929 48.4362 16.0267 46.1784 14.8386C42.4223 12.8621 43.0914 12.7139 38.8525 12.5968C35.0213 12.491 30.8178 13.077 27.3944 14.9149C24.1769 16.6423 21.1572 19.9025 20.5521 23.6076C19.8755 27.751 20.5662 31.515 22.0467 35.4011C22.9133 37.676 24.3457 40.8335 26.5913 42.1011C28.2397 43.0317 29.7487 41.8997 30.9224 40.8099C33.5711 38.3503 35.3348 34.5261 36.4836 31.187C37.7675 27.4553 38.4768 23.5315 38.3696 19.5815C38.2776 16.1933 37.8498 12.1192 35.838 9.25192C31.3483 2.85282 22.6391 8.66653 18.4374 12.4647C15.1974 15.3935 12.3833 19.2871 10.9343 23.4245C9.72418 26.8797 10.0931 30.2344 12.134 33.2864C14.4913 36.8118 19.2151 38.8075 23.1447 39.9254C25.5759 40.617 29.2536 41.2748 31.4968 39.717C32.7666 38.8351 33.0578 37.3221 32.8896 35.879C32.5545 33.0019 29.3736 31.0603 27.0284 29.9415C22.4875 27.7752 17.579 26.5095 12.7541 25.1478C10.2634 24.4449 7.71573 23.8532 5.28148 22.967C3.97467 22.4913 2.28629 21.852 1.30115 20.8167C0.0773591 19.5307 2.92764 18.0686 3.7107 17.6803C8.09076 15.5083 13.2803 14.392 18.0867 13.7203C22.3903 13.1188 26.6611 13.1543 30.9834 12.9628C33.6707 12.8438 36.3531 12.6078 38.9034 11.7225C40.7621 11.0772 38.3133 11.6031 37.7748 11.7631C34.9447 12.6045 32.0489 13.8555 29.7023 15.6672C21.8375 21.7393 23.7103 32.6485 25.1069 41.2064C25.5975 41.3793 26.1501 44.6939 26.9418 47.9326C27.2573 49.2236 27.76 48.2495 28.0499 47.4548C30.4631 40.8394 32.1379 37.1766 36.9056 31.7106C39.1081 29.1854 41.9039 27.393 45.1509 26.5356C45.5297 26.4356 50.075 25.8406 49.8683 25.1173C49.4368 23.6071 45.7749 23.3892 44.6426 23.2212C40.8094 22.6527 36.7979 22.3672 32.9252 22.3672C29.1753 22.3672 24.9935 22.4129 21.4519 23.8109C19.7158 24.4962 17.6998 26.1276 17.8579 28.203C18.0722 31.0158 20.3111 33.4678 22.3568 35.1775C25.5246 37.825 29.0338 40.2448 33.0472 41.3793C40.1195 43.3784 50.3261 34.8775 46.3862 27.4354C44.7221 24.2921 41.3612 22.5557 39.1372 19.8661C37.5379 17.9321 36.9959 15.6927 38.0443 13.3339C39.0703 11.0254 40.076 10.0902 40.9209 7.69632C41.7542 6.02965 43.3246 4.29632 42.9396 10.6963C42.5546 17.0963 41.1525 15.6399 40.4996 14.1117Z" stroke="#14233A" stroke-width="1.5" stroke-linecap="round"/>
</svg>
