<svg width="49" height="50" viewBox="0 0 49 50" fill="none" xmlns="http://www.w3.org/2000/svg">
<path d="M5.65795 16.3445C3.09055 13.5245 0.747852 9.97011 2.99941 8C4.40039 6.77415 9.84948 6.22298 16.4681 6.30354C16.5375 6.26979 16.6066 6.23603 16.6755 6.20228C15.9209 3.30537 16.4342 1.3297 19.4994 1.5C24.5864 1.7826 21.2074 3.98202 16.6755 6.20228C16.6845 6.23694 16.6938 6.27174 16.7032 6.30666C20.9232 6.36729 25.601 6.68243 29.9996 7.24108C30.6002 5.99061 31.4259 4.87815 32.4992 4C34.8249 2.0972 35.3143 4.19521 35.2384 8.054C41.2692 9.18332 46.0043 10.8441 46.9994 13C47.6448 14.3986 45.8598 15.6351 42.6752 16.8192C43.5435 18.988 42.2474 22.4998 40.4818 25.2427C46.491 25.9936 51.8721 26.2282 42.9999 30.5C40.4297 31.7375 38.1858 32.83 36.1783 33.8051C38.6765 38.776 39.9325 43.4836 39.4992 45C38.949 46.9259 32.0404 43.2503 25.2711 38.8882C24.341 39.2797 23.4269 39.6464 22.5025 39.9967C21.7331 40.648 21.1868 41.3148 20.9999 42C16.8189 57.3303 3.49925 43.5 1.99925 33C1.52852 29.705 6.08026 27.1485 12.4559 24.9907C5.73283 23.4195 2.32665 21.8664 2.99992 18.5C3.16859 17.6567 4.13376 16.9414 5.65795 16.3445Z" fill="white"/>
<path d="M9.99941 20.5C9.49941 20 -1.00059 11.5 2.99941 8C6.99941 4.5 43.9994 6.5 46.9994 13C49.9994 19.5 0.499245 22.5 1.99925 33C3.49925 43.5 16.8189 57.3303 20.9999 42C22.4999 36.5 47.1553 32.1873 24.4997 27.5C9.99943 24.5 1.99992 23.5 2.99992 18.5C3.99992 13.5 32.9993 13 40.4993 15C47.9993 17 35.9999 34 34.9999 28C33.2293 17.3762 37.9992 -0.500002 32.4992 4C26.9992 8.5 27.9993 19.1527 32.4992 23C36.9992 26.8473 56.4999 24 42.9999 30.5C29.4999 37 24.9999 39.5 16.4999 42C7.99992 44.5 8.49941 25.5 12.4994 29.5C16.4994 33.5 38.4992 48.5 39.4992 45C40.4992 41.5 32.5 21 20.9999 19.5C9.4999 18 3.99941 12.5 7.49941 10.5C10.9994 8.5 28.4994 2 19.4994 1.5C10.4994 0.999997 23.4994 19 25.9994 24.5C27.9994 28.9 11.4993 21.6667 9.99941 20.5Z" stroke="black" stroke-width="2"/>
</svg>
