<svg width="61" height="63" viewBox="0 0 61 63" fill="none" xmlns="http://www.w3.org/2000/svg">
<path d="M37.1805 46.8388C36.5768 47.1034 35.9575 47.3452 35.3255 47.5446C34.8375 48.2129 34.3737 48.8893 33.9367 49.5702C32.989 51.0469 32.3045 52.5085 31.0505 54.2527C30.1734 55.4726 29.8175 56.3125 28.6525 57.2613C25.388 59.9198 27.7102 54.1437 28.8035 48.1778C27.8572 47.7611 27.0586 47.3031 26.393 46.4167C25.9983 45.8911 25.9157 45.1368 25.7517 44.5186C25.5781 43.8643 25.3052 43.2117 24.9309 42.6327C24.597 42.7185 24.2616 42.7972 23.9244 42.8678C24.3624 43.6432 24.9383 44.3513 25.4464 45.0743C27.8419 48.483 24.4355 51.3866 21.0351 51.6822C16.4715 52.0789 14.6921 47.2778 13.5474 43.7169C13.5194 43.6298 12.676 41.1005 12.7373 40.5798C12.3519 40.1805 12.0206 39.7322 11.7604 39.2318C10.1787 39.3579 8.81212 38.733 8.51395 36.6281C8.3402 35.4016 8.67286 34.0429 8.92694 32.8495C9.1404 31.8469 9.38965 30.8523 9.65749 29.8625C9.65932 29.8042 9.6614 29.7463 9.66369 29.6885C9.81543 25.8757 10.6706 22.0569 11.8119 18.4256C12.4348 16.4436 13.1128 15.9586 14.1096 14.1318L14.1273 14.0993C14.8697 12.7387 15.7491 11.1271 17.5887 10.4174C20.0415 9.4712 22.7672 9.93043 24.1199 12.0484C25.5784 14.3318 26.5657 16.8089 27.3302 19.3683C28.0055 18.9604 28.6853 18.5581 29.3808 18.1768C31.0497 17.2617 33.0057 16.3159 34.9688 16.6275C36.258 16.8321 37.4341 17.5362 38.6875 17.8461C39.4556 17.2822 40.2789 16.7914 41.3689 16.3921C43.2468 15.704 44.902 15.5492 46.7517 16.5499C48.2012 17.3341 48.864 18.2244 49.5171 19.7375C50.4016 21.7868 50.3612 23.4925 49.4449 25.3998C49.8507 26.2784 50.0759 27.2931 50.0921 28.411C50.1229 30.529 49.6538 32.6261 48.85 34.5986C48.9449 34.6296 49.0381 34.6659 49.1293 34.7082C49.2606 34.7691 49.5977 34.9628 49.5061 35.1603C49.4051 35.3781 49.0772 35.4789 48.8817 35.584L48.8722 35.5891C48.6645 35.7007 48.4576 35.8118 48.2516 35.924C47.5843 37.2697 46.7697 38.5419 45.8654 39.7046C43.5678 42.6589 40.6445 45.32 37.1805 46.8388Z" fill="white"/>
<path d="M27.7618 47.4635C29.4821 47.8255 31.1104 48.2241 32.8742 48.0592C34.3666 47.9196 35.8137 47.438 37.1805 46.8388C40.6445 45.32 43.5678 42.6589 45.8654 39.7046C48.3455 36.5157 50.1516 32.5026 50.0921 28.411C50.0364 24.573 47.5179 21.9515 43.6807 21.8759C38.8038 21.7798 34.0582 24.7993 30.1157 27.3493C27.6958 28.9145 25.3811 30.6367 22.984 32.2361C20.3168 34.0158 17.0952 36.2245 13.7617 36.2484C9.99524 36.2754 9.54722 32.6154 9.66369 29.6885C9.81543 25.8757 10.6706 22.0569 11.8119 18.4256C12.4348 16.4436 13.1128 15.9586 14.1096 14.1318C14.8558 12.7644 15.7344 11.1327 17.5887 10.4174C20.0415 9.4712 22.7672 9.93043 24.1199 12.0484C26.674 16.0471 27.7833 20.64 28.7812 25.2288C29.2045 27.1755 29.5813 29.1297 30.0435 31.068C30.4122 32.6141 30.791 34.8908 32.0563 36.0152C32.9638 36.8215 34.2471 36.6799 35.3548 36.5066C37.4571 36.1777 39.3204 35.324 41.1697 34.3058C44.4005 32.5269 46.9743 29.5365 48.8791 26.43C50.3182 24.0831 50.5575 22.148 49.5171 19.7375C48.864 18.2244 48.2012 17.3341 46.7517 16.5499C44.902 15.5492 43.2468 15.704 41.3689 16.3921C39.048 17.2424 37.9364 18.5071 35.9915 20.01C33.4003 22.0123 30.95 24.2317 28.5753 26.4844C26.1971 28.7404 23.9062 31.0944 21.4778 33.2968C19.4172 35.1656 17.1208 37.1358 14.6107 38.3736C12.1643 39.58 8.98813 39.9755 8.51395 36.6281C8.3402 35.4016 8.67286 34.0429 8.92694 32.8495C9.41753 30.5452 10.0972 28.2835 10.7571 26.0234C11.6442 22.985 12.3237 19.9125 13.0775 16.8412C13.1339 16.6113 13.3929 14.8647 13.9091 15.3726C14.6865 16.1373 15.6926 16.8161 16.628 17.3703C18.2067 18.3057 19.7483 19.4341 21.2067 20.5436C23.6843 22.4282 25.4678 24.5343 26.8505 27.3329C29.2765 32.2433 29.3415 38.4622 29.2865 43.8082C29.2152 50.7395 24.5742 60.5825 28.6525 57.2613C29.8175 56.3125 30.1734 55.4726 31.0505 54.2527C32.3045 52.5085 32.989 51.0469 33.9367 49.5702C37.1454 44.5708 41.7968 39.8147 46.8836 36.7058C47.5394 36.3051 48.2063 35.9469 48.8817 35.584C49.0772 35.4789 49.4051 35.3781 49.5061 35.1603C49.5977 34.9628 49.2606 34.7691 49.1293 34.7082C48.1784 34.2672 47.0136 34.4739 46.0334 34.6514C41.1376 35.5383 36.7071 38.0124 32.1771 39.9501C28.1097 41.69 23.985 43.4729 19.4615 43.25C16.5996 43.1089 13.1149 41.9078 11.7331 39.1788C9.93114 35.6199 10.4909 31.9374 11.2435 28.1785C11.6012 26.3921 12.099 24.6786 12.698 22.9572C13.211 21.4829 13.7767 19.7225 14.9023 18.571C16.497 16.9397 18.0812 17.5689 19.6668 18.9855C21.7747 20.8688 22.8135 24.1652 23.525 26.7972C24.0488 28.7345 24.5534 30.6738 25.0314 32.6229C25.4036 34.1402 25.6585 36.0462 26.6654 37.319C28.2866 39.3684 31.4476 37.3149 32.9809 36.1745C35.6086 34.2201 37.4777 31.4713 38.9934 28.6173C39.7623 27.1695 40.3875 25.647 40.9026 24.0902C41.38 22.647 42.1039 20.4604 41.6723 18.9357C41.3416 17.7676 40.1978 18.0811 39.2616 17.9565C37.7869 17.7603 36.4528 16.863 34.9688 16.6275C33.0057 16.3159 31.0497 17.2617 29.3808 18.1768C27.0234 19.4694 24.8461 21.0026 22.4129 22.1806C21.1442 22.7948 19.7142 23.3012 18.7583 24.3966C17.5503 25.7808 17.0226 27.8597 16.6429 29.6165C16.1259 32.0082 15.9784 34.417 15.638 36.8332C15.3945 38.5612 15.1004 40.2974 14.9049 42.0285C14.8566 42.4559 14.3793 41.3174 14.0075 41.1012C13.8618 41.0165 12.9589 40.4243 12.7817 40.4892C12.5059 40.5903 13.5167 43.6214 13.5474 43.7169C14.6921 47.2778 16.4715 52.0789 21.0351 51.6822C24.4355 51.3866 27.8419 48.483 25.4464 45.0743C24.6913 43.9999 23.7867 42.9584 23.4069 41.68C23.1447 40.7975 24.3027 41.827 24.4853 42.0374C25.0951 42.7403 25.5154 43.628 25.7517 44.5186C25.9157 45.1368 25.9983 45.8911 26.393 46.4167C27.1642 47.4437 28.1139 47.8957 29.265 48.3745" stroke="#14233A" stroke-width="1.5" stroke-linecap="round"/>
</svg>
