<svg width="52" height="46" viewBox="0 0 52 46" fill="none" xmlns="http://www.w3.org/2000/svg">
<path d="M25.636 45C19.1528 45 13.3936 43.3783 16.1246 35.0628C13.6199 34.2245 11.6283 33.1244 10.5266 31.7998C1.14923 25.3183 -1.77576 18.5997 3.8699 17.5843C5.44757 17.3005 7.27674 17.9683 9.41029 19.078C9.74225 8.80455 11.1869 -1.8463 17.4739 3.36874C18.823 4.48779 20.4446 5.23691 22.1872 5.77202C26.0025 4.04092 32.183 3.36874 41.0524 3.36874C56.4688 3.36874 41.0524 10.4765 48.3071 21.6459C55.5618 32.8152 47.4002 27.7383 32.8911 27.7383C31.7799 27.7383 30.7019 27.6727 29.6558 27.5522C32.7295 31.79 33.4612 35.4703 26.5417 36.8768C31.3296 37.127 35.7911 35.4736 41.0524 37.8922C56.4688 44.9792 32.8911 45 25.636 45Z" fill="white"/>
<path d="M26.5417 36.8768C24.0765 33.7716 21.5067 31.1354 19.4371 28.7689M26.5417 36.8768C31.3296 37.127 35.7911 35.4736 41.0524 37.8922C56.4688 44.9792 32.8911 45 25.636 45C19.1528 45 13.3936 43.3783 16.1246 35.0628M26.5417 36.8768C22.7674 36.6796 19.0871 36.0543 16.1246 35.0628M26.5417 36.8768C33.4612 35.4703 32.7295 31.79 29.6558 27.5522M19.4371 28.7689C17.429 26.4727 15.8918 24.4306 15.3778 22.4604M19.4371 28.7689C20.625 27.4084 21.9179 26.6066 23.2169 26.0736M19.4371 28.7689C18.7399 29.5672 18.0789 30.558 17.4739 31.7998C16.8951 32.9881 16.4497 34.0728 16.1246 35.0628M15.3778 22.4604C14.8625 20.4853 15.3757 18.5826 17.4739 16.5689C17.9475 16.1144 18.4361 15.6544 18.935 15.1975M15.3778 22.4604C13.1591 21.2228 11.18 19.9984 9.41029 19.078M15.3778 22.4604C17.7136 23.7634 20.3149 25.0809 23.2169 26.0736M18.935 15.1975C25.1247 9.52914 32.8911 4.35336 32.8911 16.5689C32.8911 20.6571 31.9342 22.6026 30.4515 23.6723M18.935 15.1975C17.9213 13.762 17.331 12.4934 17.4739 11.4919C17.8432 8.90461 19.3708 7.04983 22.1872 5.77202M18.935 15.1975C20.8898 17.9654 24.4191 21.3541 27.3024 24.6455M16.1246 35.0628C13.6199 34.2245 11.6283 33.1244 10.5266 31.7998M9.41029 19.078C9.31128 22.1419 9.31125 25.1723 9.31125 27.7383C9.31125 29.5503 9.7409 30.8551 10.5266 31.7998M9.41029 19.078C9.74225 8.80455 11.1869 -1.8463 17.4739 3.36874C18.823 4.48779 20.4446 5.23691 22.1872 5.77202M9.41029 19.078C7.27674 17.9683 5.44757 17.3005 3.8699 17.5843C-1.77576 18.5997 1.14923 25.3183 10.5266 31.7998M22.1872 5.77202C30.9873 8.47435 42.8731 5.71837 38.3318 17.5843C33.5997 29.9482 38.9249 21.7527 30.4515 23.6723M22.1872 5.77202C26.0025 4.04092 32.183 3.36874 41.0524 3.36874C56.4688 3.36874 41.0524 10.4765 48.3071 21.6459C55.5618 32.8152 47.4002 27.7383 32.8911 27.7383C31.7799 27.7383 30.7019 27.6727 29.6558 27.5522M30.4515 23.6723C29.6117 24.2781 28.6032 24.603 27.5044 24.8771M30.4515 23.6723C29.5627 23.8736 28.5222 24.1862 27.3024 24.6455M27.5044 24.8771C26.9043 25.0269 26.2773 25.1614 25.636 25.3183M27.5044 24.8771C27.4374 24.8 27.3701 24.7228 27.3024 24.6455M27.5044 24.8771C28.29 25.7825 29.0226 26.6792 29.6558 27.5522M25.636 25.3183C24.8433 25.5123 24.0289 25.7405 23.2169 26.0736M25.636 25.3183C26.2258 25.0654 26.7805 24.842 27.3024 24.6455M23.2169 26.0736C25.2166 26.7577 27.3591 27.2876 29.6558 27.5522" stroke="black" stroke-width="2"/>
</svg>
