<svg width="57" height="57" viewBox="0 0 57 57" fill="none" xmlns="http://www.w3.org/2000/svg">
<path d="M3.71802 32.0472C3.66941 28.0556 5.01028 24.2584 7.15766 20.9287C7.55561 16.2493 9.96933 11.5201 13.2766 8.25975C15.0076 6.55318 16.8154 4.96742 19.2362 4.4218C20.4416 4.1501 21.8943 3.8852 22.9869 4.64428C24.2496 5.5216 24.9501 6.85083 25.3137 8.35538C25.7932 7.85439 26.09 7.28718 26.2117 6.50877C26.3205 5.81293 26.3734 5.65446 27.0899 5.40715C29.6993 4.50647 33.4438 4.18894 35.8759 5.72402C36.1537 5.89936 36.401 6.09653 36.6133 6.30902C40.3412 7.05073 43.569 9.42336 44.2811 13.6741C44.7004 16.1771 44.098 18.7727 43.2 21.1684C43.2879 21.1261 43.376 21.0843 43.4642 21.0429C44.1307 20.7302 48.0205 18.9533 47.3344 21.179C47.1638 21.7324 46.9159 22.2652 46.6285 22.78C47.7066 22.9178 48.7558 23.1694 49.674 23.6312C52.1496 24.8761 52.4665 26.836 51.6932 28.9834C51.9757 29.0482 52.2336 29.1537 52.4518 29.3133C53.2388 29.889 52.0541 31.0371 51.6629 31.4162L51.6573 31.4216C50.5398 32.5046 49.3289 33.5132 48.0717 34.4772C45.9966 36.8207 43.6787 38.8434 42.6229 39.8025C38.9847 43.1074 35.2603 46.3585 31.3925 49.3932C31.111 49.6141 27.2221 52.9309 26.7594 52.0776C26.4901 51.5811 26.8399 50.8414 27.0139 50.3936C27.2736 49.7251 27.5671 49.0724 27.884 48.431C27.0619 48.8944 26.2201 49.3211 25.3498 49.6903C17.55 52.999 19.3657 40.8678 20.2588 36.8706C20.4777 35.8911 20.7281 34.9204 21.0029 33.9568C17.7478 35.5905 14.3011 36.939 10.8136 37.2901C7.22501 37.6515 3.76667 36.042 3.71802 32.0472Z" fill="white"/>
<path d="M24.5497 9.90479C23.381 9.62302 22.1965 9.23094 20.9926 9.50341C19.5212 9.83642 18.1816 10.4084 16.8911 11.1827C13.0812 13.4689 10.168 16.5647 7.64105 20.2064C5.21364 23.7046 3.66585 27.764 3.71802 32.0472C3.76667 36.042 7.22501 37.6515 10.8136 37.2901C16.4193 36.7257 21.9195 33.5848 26.6879 30.8238C29.8407 28.9984 32.9595 27.1124 36.0858 25.2421C38.5083 23.7928 40.9048 22.2436 43.4642 21.0429C44.1307 20.7302 48.0205 18.9533 47.3344 21.179C46.924 22.5104 46.0658 23.7233 45.286 24.8509C43.9783 26.7419 42.591 28.5845 40.9384 30.1905C39.4934 31.5948 37.8925 32.9129 36.2582 34.0894C34.5531 35.3168 32.6334 36.6846 30.5918 37.2798C28.8911 37.7756 26.8027 38.3183 25.466 36.8704C24.1858 35.4838 23.9661 33.3871 23.8619 31.5735C23.5695 26.4826 24.8443 21.3167 25.3465 16.2719C25.6955 12.7652 26.423 7.03161 22.9869 4.64428C21.8943 3.8852 20.4416 4.15009 19.2362 4.4218C16.8154 4.96743 15.0076 6.55318 13.2766 8.25975C9.73216 11.7539 7.21402 16.9352 7.10356 21.934C7.0043 26.4261 9.85311 30.1541 13.8159 32.0345C19.3623 34.6662 26.1074 34.3501 31.9875 33.314C37.4467 32.3522 42.6557 30.4591 48.0693 29.323C49.2513 29.075 51.3542 28.5105 52.4518 29.3133C53.2426 29.8917 52.0427 31.0481 51.6573 31.4216C48.3917 34.5865 44.3281 37.1154 40.6441 39.7541C37.8677 41.7428 35.0909 43.7304 32.2613 45.6431C30.052 47.1366 27.8153 48.6445 25.3498 49.6903C17.55 52.999 19.3657 40.8678 20.2588 36.8706C21.2827 32.2879 22.997 27.8979 24.6784 23.5275C26.0517 19.958 27.8581 16.1328 27.8869 12.2257C27.8943 11.2298 27.6454 9.90105 26.3834 10.0771C23.7332 10.4467 21.1449 11.8697 18.8449 13.1515C16.2172 14.6158 12.7121 16.7655 11.636 19.7644C10.8073 22.0737 13.2841 23.1647 15.1218 23.6343C20.3913 24.9809 26.2578 24.122 31.5706 23.51C35.3089 23.0794 39.1027 22.5964 42.8717 22.6092C45.058 22.6166 47.6764 22.6266 49.674 23.6312C57.0034 27.3171 45.4113 37.2695 42.6229 39.8025C38.9847 43.1074 35.2603 46.3585 31.3925 49.3932C31.111 49.6141 27.2221 52.9309 26.7594 52.0776C26.4901 51.5811 26.8399 50.8414 27.0139 50.3936C27.5815 48.933 28.3098 47.5471 29.0932 46.1924C31.6429 41.7827 34.5278 37.5845 37.1321 33.2078C39.0536 29.9787 40.8097 26.6589 42.3461 23.2303C43.6532 20.3135 44.8241 16.916 44.2811 13.6741C43.2152 7.31135 36.5127 5.15667 30.9335 6.38099C28.4963 6.9158 25.881 8.24725 24.3104 10.2314C22.9838 11.9072 24.1331 12.7351 25.8324 13.3009C28.1456 14.0711 30.6893 14.0465 33.0747 14.4442C35.0727 14.7773 38.4282 15.0829 39.3289 17.2335C40.2259 19.375 38.8157 21.6276 37.7435 23.4256C36.4498 25.5949 34.9826 27.7036 33.4613 29.718C32.2771 31.286 31.0361 33.3132 29.2497 34.245C28.065 34.863 27.1896 34.1945 27.0588 32.9263C26.8429 30.832 27.7622 28.501 28.5082 26.6029C29.5297 24.0039 30.9544 21.4715 31.618 18.7454C32.3188 15.8661 30.5781 12.5999 28.5689 10.605C26.1499 8.20307 21.4151 8.45383 18.5732 9.79021C17.4748 10.3067 16.6085 11.4455 16.5648 12.6774C16.5135 14.1262 17.9907 14.56 19.1974 14.5589C22.6778 14.5557 26.157 13.4189 29.4672 12.4508C31.6922 11.8001 34.3134 11.3269 36.2979 10.0548C38.1794 8.8488 37.6477 6.84235 35.8759 5.72402C33.4438 4.18894 29.6993 4.50647 27.0899 5.40715C26.3734 5.65446 26.3205 5.81293 26.2117 6.50877C26.0436 7.58388 25.5414 8.25612 24.6853 8.90743" stroke="#14233A" stroke-width="1.5" stroke-linecap="round"/>
</svg>
