<svg width="48" height="49" viewBox="0 0 48 49" fill="none" xmlns="http://www.w3.org/2000/svg">
<path d="M11.4354 25.8405C5.68234 21.5185 0.539421 17.2784 2.00044 16C2.70923 15.3798 4.25005 14.6026 6.32247 13.7797C5.41433 11.3268 5.18667 9.06884 5.50044 7.5C6.01192 4.94263 12.9326 6.44015 20.5758 8.78124C20.8473 7.88065 21.0484 7.0281 21.1627 6.24506C16.8427 3.22903 12.5697 1.17054 18.4999 1.5C20.9056 1.63365 21.5608 3.5177 21.1627 6.24506C22.3321 7.06145 23.5049 7.94799 24.4797 8.87632C26.2825 8.57937 28.0378 8.35615 29.6776 8.23185C28.2224 5.20155 28.0494 2.87708 30.5004 2.5C32.7931 2.14729 33.8702 4.51603 34.3817 8.1965C36.9838 8.41513 38.8624 9.11903 39.4997 10.5C40.4158 12.4848 39.4205 13.5838 37.6384 14.4519C38.3399 14.6719 38.9655 14.8575 39.4998 15C42.4548 15.788 42.6157 19.6808 41.6643 23.7424C41.9703 24.0324 42.2508 24.2865 42.5005 24.5C47.0005 28.3473 50.5005 31.5 37.0005 38C35.1715 38.8806 33.5994 39.5502 32.2272 40.0559C33.7261 41.1982 35.3015 42.3459 36.8299 43.3903C43.4425 39.7918 47.9767 35.7999 45.9998 47C45.685 48.7837 41.4743 46.5638 36.8299 43.3903C33.4056 45.2537 29.4239 47.0118 25.5004 46.5C21.8048 46.018 18.3673 44.245 15.5199 41.9943C15.5134 41.9962 15.5069 41.9981 15.5004 42C12.6246 42.8458 12.3243 41.7457 13.3408 40.0745C13.0593 39.799 12.7865 39.5204 12.5228 39.2396C5.96173 41.8883 -0.016276 41.3946 2.00044 34C2.33051 32.7897 4.65338 32.0243 7.83464 31.5167C7.59237 30.3166 7.78595 29.4083 8.50044 29C9.14647 28.6308 10.2013 27.4781 11.4354 25.8405Z" fill="white"/>
<path d="M15.5004 34C43.501 45.1999 -1.99956 19.5 2.00044 16C6.00044 12.5 36.4997 4 39.4997 10.5C42.4997 17 25.0002 14 26.5002 24.5C28.0002 35 -2.18056 49.3303 2.00044 34C3.50044 28.5 46.1558 32.1873 23.5002 27.5C8.99993 24.5 4.50044 12.5 5.50044 7.5C6.50044 2.5 31.9998 13 39.4998 15C46.9998 17 36.5005 39 35.5005 33C33.7299 22.3762 37.0005 1.5 30.5004 2.5C23.4767 3.58056 38.0005 20.6527 42.5005 24.5C47.0005 28.3473 50.5005 31.5 37.0005 38C23.5005 44.5 24.0004 39.5 15.5004 42C7.00042 44.5 20.9999 30 24.9999 34C28.9999 38 45.3671 50.5846 45.9998 47C49.0004 30 37.0005 48 25.5004 46.5C14.0004 45 5.00044 31 8.50044 29C12.0004 27 27.4999 2 18.4999 1.5C9.49992 0.999999 24.0004 6 26.5004 11.5C28.5004 15.9 3.50096 29.2004 15.5004 34Z" stroke="black" stroke-width="2"/>
</svg>
