<svg width="356" height="385" viewBox="0 0 356 385" fill="none" xmlns="http://www.w3.org/2000/svg">
<path fill-rule="evenodd" clip-rule="evenodd" d="M41.0701 169.009C42.6446 171.159 44.1042 173.153 44.937 178.575C46.0681 168.985 47.5359 155.141 48.5 132C48.7833 125.199 48.3457 117.632 47.909 110.08C47.0113 94.5537 46.1174 79.0936 51.4993 70.5C82.4993 21 133.5 1.50001 178 1.5C222.5 1.49999 273.5 27 301 70.5C305.5 77.6182 307.5 110 307.5 137C307.5 156.634 309.325 170.149 310.721 180.484C310.829 181.281 310.934 182.059 311.036 182.82C312.517 175.427 313.608 170.914 315.5 166.5C317 163 319.378 159.46 324.999 158.5C328.499 157.902 333.999 159.5 335.499 161C338.546 164.046 340.001 184 335.499 200.5C332.498 211.5 327.496 228.5 323.496 237C322.998 238.057 322.579 240.868 322.081 244.212C321.042 251.185 319.658 260.473 316.496 261C313.496 261.5 308.599 261.5 306.999 259.5C304.999 257 301.852 249 302.352 245L302.362 244.961C302.359 244.974 302.355 244.987 302.352 245C293.54 277.071 281.071 314.123 276 321.5C270.5 329.5 261.141 339.178 250 349.5C239.479 359.247 227.791 367.95 219.155 374.381L219.154 374.381L219.154 374.382L219.154 374.382C216.861 376.089 214.783 377.636 213 379C200.5 382.5 191.112 383.901 178 383.5C163.398 383.054 155.099 381.82 141 378C131.166 372.167 120.735 364.178 107.5 353.5C96.5303 344.65 82.2997 329.5 77.4997 321.5C71.7997 312 62.1315 279.725 53.9997 247.5C53.8385 246.861 53.675 246.221 53.5095 245.579C53.9738 249.617 51.987 258.516 50.0001 261C48.4001 263 43.0001 263 40 262.5C36.8509 261.975 35.4653 252.083 34.4278 244.676C33.9239 241.078 33.502 238.067 33.0001 237C29.0001 228.5 22.5005 211.5 19.4995 200.5C14.9979 184 13.4533 164.546 16.4999 161.5C18 160 22.5 157.902 26 158.5C31.6215 159.46 37.8878 164.332 40 167.5C40.3586 168.038 40.7172 168.528 41.0701 169.009ZM312 201.5C312 206 308.821 220.5 304.5 237C308.821 220.5 312 206 312 201.5ZM102.938 187.242C102.938 187.242 89.3333 192.167 83.5 195C84.7043 195.345 86.0431 195.741 87.4824 196.166L87.4833 196.167C96.4092 198.805 109.203 202.587 117.81 202.587C127.789 202.587 133.712 200.222 138.443 198.333L138.443 198.332C140.3 197.591 141.973 196.923 143.636 196.5C139.136 192.5 129.1 184.9 125.5 184.5C121 184 102.938 187.242 102.938 187.242ZM272.09 195.334C266.257 192.501 255.369 188.922 251.513 187.987C247.532 187.022 233.377 184.566 228.877 185.066C225.383 185.455 217.571 192.404 212.999 196.47L212.59 196.834C214.374 197.288 215.966 198.015 217.703 198.809L217.703 198.809C221.707 200.638 226.484 202.821 236.176 202.821C245.988 202.821 262.79 198.002 271.607 195.472L272.09 195.334Z" fill="white"/>
<path fill-rule="evenodd" clip-rule="evenodd" d="M21.7269 156.5C21.5763 159.314 21.5 162.148 21.5 165C21.5 196.943 31.0703 226.652 47.5 251.414V156.5H21.7269ZM20.7255 156.5C20.5758 159.314 20.5 162.148 20.5 165C20.5 197.684 30.4557 228.043 47.5 253.21V262.5H1.5V156.5H20.7255ZM20.7818 155.5H1H0.5V156V263V263.5H1H47.5V322V322.5H48H111.65C113.964 357.128 142.785 384.5 178 384.5C213.215 384.5 242.036 357.128 244.35 322.5H308H308.5V322V263.5H355H355.5V263V156V155.5H355H335.218C333.489 126.44 323.881 99.5008 308.5 76.7902V76.5H308.303C279.961 34.8521 232.175 7.5 178 7.5C123.825 7.5 76.0387 34.8521 47.697 76.5H47.5V76.7902C32.1191 99.5008 22.5107 126.44 20.7818 155.5ZM21.7836 155.5H47.5V78.5863C32.7109 100.876 23.4798 127.173 21.7836 155.5ZM48.5 77.5V155.5H49V156.5H48.5V196.14C48.708 195.863 48.997 195.494 49.3754 195.045C50.2646 193.989 51.6474 192.488 53.6333 190.692C57.6055 187.098 63.9877 182.322 73.6538 177.552C91.6576 168.667 121.041 159.807 167.446 158.632C140.205 153.871 119.5 130.103 119.5 101.5C119.5 92.9403 121.354 84.8138 124.683 77.5H48.5ZM125.784 77.5C122.393 84.7944 120.5 92.9261 120.5 101.5C120.5 132.98 146.02 158.5 177.5 158.5V77.5H125.784ZM177.5 76.5H126.261C135.523 57.5511 154.988 44.5 177.5 44.5V76.5ZM178.5 77.5V158.491C209.519 157.958 234.5 132.646 234.5 101.5C234.5 92.9261 232.607 84.7944 229.216 77.5H178.5ZM228.739 76.5H178.5V44.5086C200.588 44.8886 219.614 57.8323 228.739 76.5ZM230.317 77.5C233.646 84.8138 235.5 92.9403 235.5 101.5C235.5 130.061 214.856 153.8 187.675 158.61C234.588 159.696 264.229 168.611 282.346 177.552C292.012 182.322 298.394 187.098 302.367 190.692C304.352 192.488 305.735 193.989 306.625 195.045C307.003 195.495 307.292 195.863 307.5 196.14V156.5H307V155.5H307.5V77.5H230.317ZM308.5 78.5863V155.5H334.216C332.52 127.173 323.289 100.876 308.5 78.5863ZM334.273 156.5H308.5V251.414C324.93 226.652 334.5 196.943 334.5 165C334.5 162.148 334.424 159.314 334.273 156.5ZM307.5 252.902V197.728L307.485 197.743C307.228 198.005 306.841 198.387 306.314 198.872C305.261 199.841 303.651 201.219 301.414 202.871C296.939 206.174 289.953 210.568 279.887 214.958C264.969 221.465 243.291 227.96 213 230.889V261.445C228.975 271.353 240.442 287.84 243.615 307.122C269.519 295.143 291.594 276.289 307.5 252.902ZM243.775 308.15C269.51 296.305 291.505 277.725 307.5 254.669V262.5V263.5V321.5H244.409C244.47 320.341 244.5 319.174 244.5 318C244.5 314.653 244.253 311.364 243.775 308.15ZM242.672 307.555C239.644 288.66 228.534 272.464 213 262.625V275.5V276H212.5H178.5V321.499C201.379 321.428 223.102 316.447 242.672 307.555ZM195.847 321.5C212.423 319.631 228.219 315.188 242.828 308.582C243.271 311.657 243.5 314.802 243.5 318C243.5 319.174 243.469 320.341 243.408 321.5H195.847ZM178.5 322.5H243.348C241.599 348.273 224.941 369.956 201.93 378.991C202.797 378.531 203.632 378.047 204.431 377.539C211.212 373.232 215.5 367.22 215.5 360.5C215.5 353.78 211.212 347.768 204.431 343.461C197.754 339.22 188.6 336.586 178.5 336.502V322.5ZM177.5 336.502V322.5H112.652C114.401 348.273 131.059 369.956 154.07 378.991C153.203 378.531 152.368 378.047 151.569 377.539C144.788 373.232 140.5 367.22 140.5 360.5C140.5 353.78 144.788 347.768 151.569 343.461C158.246 339.22 167.4 336.586 177.5 336.502ZM177.5 337.502C167.562 337.586 158.6 340.18 152.105 344.305C145.495 348.503 141.5 354.241 141.5 360.5C141.5 366.759 145.495 372.497 152.105 376.695C158.6 380.82 167.562 383.414 177.5 383.498V337.502ZM178.5 383.498C188.438 383.414 197.4 380.82 203.895 376.695C210.505 372.497 214.5 366.759 214.5 360.5C214.5 354.241 210.505 348.503 203.895 344.305C197.4 340.18 188.438 337.586 178.5 337.502V383.498ZM112.592 321.5H160.153C143.577 319.631 127.781 315.188 113.172 308.582C112.729 311.657 112.5 314.802 112.5 318C112.5 319.174 112.531 320.341 112.592 321.5ZM113.328 307.555C132.898 316.447 154.621 321.428 177.5 321.499V276H143.5H143V275.5V262.625C127.466 272.464 116.356 288.66 113.328 307.555ZM143 261.445C127.025 271.353 115.558 287.84 112.385 307.122C86.4808 295.143 64.4057 276.289 48.5 252.902V197.728L48.515 197.743C48.7721 198.005 49.1594 198.387 49.6858 198.872C50.7388 199.841 52.3484 201.219 54.5859 202.871C59.061 206.174 66.0467 210.568 76.1126 214.958C91.031 221.465 112.709 227.96 143 230.889V261.445ZM144 262.004V275H177.5V252.502C165.238 252.594 153.778 256.054 144 262.004ZM177.5 251.502C165.265 251.592 153.815 254.986 144 260.837V230.984C154.181 231.936 165.324 232.485 177.5 232.5V251.502ZM178.5 252.502V275H212V262.004C202.222 256.054 190.762 252.594 178.5 252.502ZM212 260.837C202.185 254.986 190.735 251.592 178.5 251.502V232.5C190.676 232.485 201.819 231.936 212 230.984V260.837ZM213 229.884C243.145 226.96 264.69 220.496 279.488 214.042C289.484 209.682 296.405 205.326 300.82 202.066C303.028 200.437 304.61 199.081 305.637 198.136C305.897 197.897 306.121 197.684 306.311 197.5H264.495C264.229 211.905 252.469 223.5 238 223.5C226.453 223.5 216.632 216.115 213 205.811V229.884ZM212 202.149V229.979C201.826 230.934 190.683 231.485 178.5 231.5V197.5H211.505C211.534 199.088 211.703 200.642 212 202.149ZM213 202.05C215.343 213.714 225.646 222.5 238 222.5C251.831 222.5 263.091 211.488 263.489 197.753C265.08 197.322 266.598 196.898 268.006 196.5H306.517C306.342 196.275 306.124 196.003 305.86 195.689C304.999 194.667 303.647 193.199 301.696 191.433C297.793 187.902 291.488 183.178 281.904 178.448C262.797 169.019 230.645 159.56 178.5 159.5V196.5H211.505C211.771 182.095 223.531 170.5 238 170.5C250.93 170.5 261.697 179.76 264.031 192.01C263.664 191.875 263.297 191.741 262.929 191.609C260.455 180.115 250.234 171.5 238 171.5C224.084 171.5 212.771 182.648 212.505 196.5H212.965C212.837 196.614 212.712 196.725 212.59 196.834C213.307 197.016 213.993 197.243 214.669 197.5H213V202.05ZM177.5 196.5V159.5C125.355 159.56 93.2029 169.019 74.0963 178.448C64.5123 183.178 58.2071 187.902 54.3042 191.433C52.3526 193.199 51.0011 194.667 50.1403 195.689C49.8762 196.003 49.6582 196.275 49.4833 196.5H88.6115C89.8529 196.866 91.1582 197.25 92.5078 197.638C92.8465 211.426 104.13 222.5 118 222.5C130.354 222.5 140.657 213.714 143 202.05V197.5H140.565C141.618 197.102 142.629 196.756 143.636 196.5C143.589 196.458 143.541 196.416 143.492 196.373C143.16 182.579 131.874 171.5 118 171.5C106.019 171.5 95.9685 179.762 93.2344 190.899C92.8594 191.046 92.4824 191.194 92.1051 191.343C94.6965 179.425 105.306 170.5 118 170.5C132.469 170.5 144.229 182.095 144.495 196.5H177.5ZM91.5046 197.5H49.6891C49.879 197.684 50.1033 197.897 50.363 198.136C51.3901 199.081 52.9719 200.437 55.1797 202.066C59.5952 205.326 66.5158 209.682 76.5124 214.042C91.3104 220.496 112.855 226.961 143 229.884V205.811C139.368 216.115 129.547 223.5 118 223.5C103.531 223.5 91.7712 211.905 91.5046 197.5ZM144 202.149C144.297 200.642 144.466 199.088 144.495 197.5H177.5V231.5C165.317 231.485 154.174 230.934 144 229.979V202.149ZM48.5 254.669C64.4951 277.725 86.4896 296.305 112.225 308.15C111.747 311.364 111.5 314.653 111.5 318C111.5 319.174 111.53 320.341 111.591 321.5H48.5V263.5V262.5V254.669ZM308.5 262.5V253.21C325.544 228.043 335.5 197.684 335.5 165C335.5 162.148 335.424 159.314 335.275 156.5H354.5V262.5H308.5ZM307.091 76.5H229.85C220.648 57.2642 201.155 43.8915 178.5 43.5084V8.50078C231.881 8.66773 278.971 35.5604 307.091 76.5ZM177.5 8.50078C124.119 8.66773 77.0289 35.5604 48.9085 76.5H125.15C134.487 56.9818 154.419 43.5 177.5 43.5V8.50078Z" fill="#8D8D8D"/>
<path d="M83.4997 195C87.6663 190.833 95.5997 183.3 102 180.5M83.4997 195C89.333 192.167 102.937 187.242 102.937 187.242C102.937 187.242 121 184 125.5 184.5C129.1 184.9 139.136 192.5 143.636 196.5M83.4997 195C92.1729 197.487 107.815 202.587 117.809 202.587C131.705 202.587 137.737 198.001 143.636 196.5M102 180.5C110 177 127.5 174.5 129 174.5M102 180.5C99.4997 178 95.9528 175.041 90.9997 171.5C87.8292 169.234 85.4595 167.901 83.4997 167M129 174.5C130.5 174.5 139 174 141 173C142.6 172.2 145.333 168.333 146.5 166.5M129 174.5C130.5 175.833 134.4 179.5 138 183.5C141.6 187.5 142.555 193.589 143.636 196.5M143.636 196.5C141.302 200.167 134.4 208.3 126 211.5C117.6 214.7 111.833 215.5 110 215.5M271.844 195.425L272 195.5M272 195.5C267.827 191.327 260.337 183.338 253.953 180.544M272 195.5C266.167 192.667 255.279 189.088 251.423 188.153C247.441 187.188 233.286 184.733 228.786 185.233C225.186 185.633 217 193 212.5 197M272 195.5C263.327 197.987 246.08 202.987 236.085 202.987C222.189 202.987 218.398 198.501 212.5 197M253.953 180.544C245.953 177.044 226.784 175.758 225.284 175.758M253.953 180.544C256.453 178.044 258.683 175.947 263.636 172.406C266.806 170.14 272.586 169.09 274.546 168.189M225.284 175.758C223.784 175.758 216.907 173.406 214.907 172.406C213.307 171.606 208.882 167.995 207.715 166.162M225.284 175.758C223.784 177.091 220.551 180.629 217.337 184.946C213.915 189.545 213.581 194.089 212.5 197M212.5 197C214.833 200.667 219.1 207.8 227.5 211C235.9 214.2 244.166 214.5 246 214.5M210 268.5C208 266 206.027 262.877 202 260C197.972 257.123 191.5 254 191.5 254M210 268.5C208.956 263.364 207.104 255.752 206.12 252.226C205.199 248.926 202.527 246.171 199.597 242.326M210 268.5C207.44 270.391 201.956 274.235 200.5 274.48C199.043 274.726 195.031 273.491 193 272.5C196.068 271.179 201.661 267.669 201.145 266.948C200.5 266.047 193.479 262.43 192 262M186 185C187.5 185.5 190 187.5 192 189.5C193.5 191 196.655 194.5 197.5 197C199.569 203.126 203 212.028 203 218.5M186 185C186.5 188 188.065 194.6 188.065 197C188.065 200 188 207.5 187.565 209.5C187.127 211.514 185 230 185.5 232C186 234 191.5 251.5 191.5 254M186 185C192.666 178.833 209 163.5 214 162M186 185L169 185M203 218.5C203 225.564 201.238 236.139 199.597 242.326M203 218.5C201.145 216.5 198 214.5 195 212.5C192 210.5 187.651 209 187.651 209C185.334 208.559 180.357 207.126 178 207.126C175.642 207.126 170.351 208.709 168 209.5M199.597 242.326C197.414 239.463 194.322 237.003 192.322 235.503C190.322 234.003 185.5 231.5 185.5 231.5M192 262L191.5 254M192 262C187.916 266.68 181.846 272.702 177.994 272.702C172.739 272.702 164 262.084 162.756 262.174M214 162C217.748 160.876 246.423 159 253 159C259.5 159 271.5 164.5 275.5 169M214 162C220 151.333 228.357 142 233.5 112C236.843 92.5 237.917 62.3885 236.917 51.8885M275.5 169C278.7 172.6 284.666 185.167 287 190M275.5 169C272.333 164.167 267.555 154.5 266 147.5C264.444 140.5 264.5 126.167 270.5 109.5C274.64 98 281.5 87 289 77.5C289 77.5 256.5 44.5 178 44.5C99.4997 44.5 58.4997 77.5 58.4997 77.5C59.9997 89 64.9996 100.5 70.9996 112C77.4762 124.413 87.4996 136.5 87.4996 147C87.4996 154 84.4996 162.167 82.9996 167.5M287 190C287 191.833 286.1 197.4 282.5 205C278.9 212.6 276.333 216.167 275.5 217M287 190C291.5 190.167 301.386 192.415 307.5 197C309.5 198.5 311 199.5 312 201.5M312 201.5C312 206 308.821 220.5 304.5 237C295.7 270.6 281.5 313.5 276 321.5C270.5 329.5 261.141 339.178 250 349.5C236.685 361.836 221.5 372.5 213 379M312 201.5C313.666 188.5 307.5 173.087 307.5 137C307.5 110 305.5 77.6182 301 70.5C273.5 27 222.5 1.49999 178 1.5C133.5 1.50001 82.4993 21 51.4993 70.5C43.4996 83.2736 49.3657 111.218 48.5 132C46.5003 180 42.333 188 43.4996 201M312 201.5C313.5 195.333 317.3 181.1 318.5 177.5C320 173 320.995 166 324.495 164C327.295 162.4 332.666 161.333 335.499 161M312 201.5C313.833 207.167 316.753 210.931 317.496 218C317.944 222.272 317.996 227.5 316.496 229.5C315.296 231.1 308.907 232.667 305.407 233.5M176 272.5C175 274.167 172.3 279.5 171.5 281.5C170.7 283.5 167.5 290.667 167 292.5M167 292.5C170 293 176.4 299.6 178 300C180 300.5 184 292.5 188 292.5M167 292.5C164 292 153.829 294.835 148.5 297.5C143.171 300.165 134 307.5 123 311M179.5 272.5C180.5 274.167 183.2 279.5 184 281.5C184.8 283.5 187.5 290.667 188 292.5M188 292.5C195 292.5 199 294 206 298.5C213 303 222 308 231 312C215.5 311.667 196 309 178 309C158 309 139.166 312 123 311M188 292.5C189 292.5 191.085 293.128 192 294.5C194 297.5 187.5 305.5 183.5 309M123 311C127 311 143.374 312.501 149.5 315.5C154.026 317.716 155.949 319.336 160.5 321.5C166.967 324.576 169.935 324.934 178 325M178 325C186.646 325.071 189 324.5 195 322C199.919 319.95 202.663 317.965 207.5 315.5C212.733 312.833 226 312 230.5 312M178 325V337.5M178 337.5C154.5 337.5 139.833 342.833 129.5 345.5M178 337.5C201.5 337.5 216.333 344.167 227 346.5M165 292.5C163.667 293.167 161.3 295.2 162.5 298C163.7 300.8 169.333 306.5 172 309M169 185C162.333 178.833 144.709 163.784 139 161.5M169 185C168.5 188 167.5 194.6 167.5 197C167.5 200 167.5 206.206 168 209.5M169 185C166.333 186.5 164.725 187.816 161.98 190C159.792 191.742 158.468 195.5 157.468 197C155.399 203.126 150.378 212.528 150.378 219M139 161.5C134 159.5 109 158.5 102.5 159.5C95.9996 160.5 86.5552 163.5 82.9996 167.5M139 161.5C132 150.5 123.333 132 120 114C116.944 97.5 115.611 64.8286 115.611 52.4952M82.9996 167.5C79.7996 171.1 73.333 185.167 70.9996 190M70.9996 190C71.9996 194 74.8996 203.3 78.4996 208.5C82.0996 213.7 85.9996 217.667 87.4996 219M70.9996 190C66.1663 190.833 54.8996 193.4 48.4996 197M48.4996 197C45.9996 198.406 44.4996 199 43.4996 201M48.4996 197C48.833 205 54.9997 226.5 62.4997 239C73.9233 258.039 98.4997 273 100.5 277C102.5 281 112.5 312 117 321C121.5 330 129 340.5 129.5 345.5M43.4996 201C46.4996 221 50.7191 234.5 53.9997 247.5C62.1315 279.725 71.7997 312 77.4997 321.5C82.2997 329.5 96.5303 344.65 107.5 353.5C120.735 364.178 131.166 372.167 141 378M43.4996 201C41.9996 194.833 38.7 181.1 37.5 177.5C36 173 32 166.5 28.5 164.5C25.7 162.9 19.3333 161.833 16.4999 161.5M43.4996 201C41.6663 206.667 39.7423 210.931 39 218C38.5514 222.272 38.5 227.5 40 229.5C41.2 231.1 47 232.667 50.5 233.5M168 209.5C168.598 213.445 171 230 170.5 232M168 209.5C166.341 210.332 162.361 212.31 159.714 213.56C157.067 214.81 152.387 217.707 150.378 219M170.5 232C170 234 164 251.5 164 254M170.5 232C168.092 233.33 162.907 236.185 161.423 236.966C159.939 237.747 155.691 241.239 153.753 242.887M170.5 232C172.339 231.54 176.413 230.602 177.994 230.524C179.575 230.446 183.614 231.142 185.436 231.5M164 254C162 255 156 257.5 152.5 260C148.472 262.877 145 266 143 268.5M164 254L162.756 262.174M143 268.5C144.043 263.364 146.287 252.71 146.917 251.182C147.546 249.655 151.736 245.016 153.753 242.887M143 268.5C145.56 270.391 151.043 274.235 152.5 274.481C153.956 274.726 158.382 272.805 160.413 271.813C157.345 270.492 151.339 267.669 151.855 266.949C152.5 266.048 161.512 262.264 162.756 262.174M150.378 219C150.378 226.064 152.111 236.7 153.753 242.887M141 378C155.099 381.82 163.398 383.054 178 383.5C191.112 383.901 200.5 382.5 213 379M141 378C139.833 376.5 137.3 372.5 134.5 366.5C131 359 130 350.5 129.5 345.5M141 378C147.833 375.667 164.4 370.5 178 370.5C191.6 370.5 207 376.167 213 379M213 379C214.166 377.5 218.2 373.5 221 367.5C224.5 360 226.5 351.5 227 346.5M227 346.5C227.5 341.5 236 329.5 240.5 320.5C245 311.5 255 282 257 278C259 274 280.5 255 293.5 237C303.9 222.6 306.666 205 307 197M45 179C44 172 42 170.5 40 167.5C37.8878 164.332 31.6215 159.46 26 158.5C22.5 157.902 18 160 16.4999 161.5M16.4999 161.5C13.4533 164.546 14.9979 184 19.4995 200.5C22.5005 211.5 29.0001 228.5 33.0001 237M33.0001 237C34.5353 240.262 35.3211 261.72 40 262.5C43.0001 263 48.4001 263 50.0001 261M33.0001 237C31.1668 228 26.9995 207.9 24.9997 199.5C22.4999 189 21.4996 180 23.9997 163M33.0001 237C37.6668 241 46.4997 247.5 47.9997 252C49.1663 255.5 49.8335 258.833 50.0001 261M50.0001 261C52.0001 258.5 54 249.5 53.5 245.5M310.999 183C312.499 175.5 313.592 170.95 315.499 166.5C316.999 163 319.378 159.46 324.999 158.5C328.499 157.902 333.999 159.5 335.499 161M335.499 161C338.545 164.046 340.001 184 335.499 200.5C332.498 211.5 327.495 228.5 323.495 237M323.495 237C321.96 240.262 321.174 260.22 316.495 261C313.495 261.5 308.599 261.5 306.999 259.5M323.495 237C325.329 228 329 206.4 331 198C333.5 187.5 333 179 330.5 162M323.495 237C318.829 241 309.996 247.5 308.496 252C307.329 255.5 307.166 257.333 306.999 259.5M306.999 259.5C304.999 257 301.852 249 302.352 245" stroke="#14233A" stroke-width="1.5"/>
</svg>
