<svg width="68" height="40" viewBox="0 0 68 40" fill="none" xmlns="http://www.w3.org/2000/svg">
<rect width="68" height="40" fill="white"/>
<path d="M42 29V8L20 29H42Z" fill="black"/>
<path fill-rule="evenodd" clip-rule="evenodd" d="M67.913 16.9599C66.9852 17.2069 66.0084 17.3388 65 17.3388C59.3956 17.3388 54.7702 13.266 54.087 8C49.4255 9.24083 46 13.387 46 18.3106C46 24.2142 50.9249 29 57 29C63.0751 29 68 24.2142 68 18.3106C68 17.8531 67.9704 17.4023 67.913 16.9599Z" fill="black"/>
<path d="M11 29.2727C17.0751 29.2727 22 24.5107 22 18.6364C22 12.7621 17.0751 8 11 8C4.92487 8 0 12.7045 0 18.6364C0 24.5682 0 35 0 35H5.92308C5.92308 35 5.92308 28.4545 5.71154 27.8409C7.2304 28.6064 9.16871 29.2727 11 29.2727Z" fill="black"/>
</svg>
